<svg viewBox="0 0 78 78" xml:space="preserve" xmlns="http://www.w3.org/2000/svg" enable-background="new 0 0 78 78"><path d="M75 15v-4.5A1.5 1.5 0 0 0 73.5 9H45a7.494 7.494 0 0 0-5.996 3h-.008A7.494 7.494 0 0 0 33 9H4.5A1.5 1.5 0 0 0 3 10.5V15H0v51h32.299c1.641 1.84 4.041 3 6.701 3s5.059-1.16 6.699-3H78V15h-3zM6 12h27c2.481 0 4.5 2.019 4.5 4.5v28.666a1.5 1.5 0 1 0 3 0V16.5c0-2.481 2.019-4.5 4.5-4.5h27v48H45a7.495 7.495 0 0 0-5.996 3h-.008A7.495 7.495 0 0 0 33 60H6V12z" fill="#ff7300" class="fill-333f4f"></path></svg>